<svg width="420" height="440" viewBox="0 0 420 440" fill="none" xmlns="http://www.w3.org/2000/svg">
<g clip-path="url(#clip0_674_2602)">
<path d="M179.057 211.13C170.12 214.101 161.364 210.735 156.414 204.809C153.739 201.63 156.274 197.278 159.81 197.278C162.563 197.278 172.536 202.393 179.058 211.131L179.057 211.13Z" fill="#D7EF60"/>
<path d="M92.4145 271.157C92.1086 275.155 91.1737 278.22 89.9021 280.831V280.934C83.4601 293.384 68.0831 297.559 60.5706 285.684C52.5173 273.058 68.2504 259.799 92.4145 271.157Z" fill="#D7EF60"/>
<path d="M74.8464 343.776C69.7529 342.273 64.7108 340.528 59.7733 338.525C52.7052 335.623 51.3269 333.132 51.4747 326.571C61.4369 329.136 70.1398 334.701 74.8464 343.776Z" fill="#D7EF60"/>
<path d="M110.519 310.956C110.242 312.822 109.983 314.67 109.757 316.519C109.636 317.52 109.515 318.627 109.636 319.732C89.0012 321.667 75.5229 324.862 75.5229 328.472C75.5229 329.733 77.1865 330.942 80.2182 332.082C79.7153 332.082 79.2309 332.1 78.728 332.117C86.9897 341.154 87.3612 341.496 87.7892 342.395C88.4829 343.863 88.1699 345.59 87.3735 347.041C83.9262 346.264 80.5127 345.4 77.1167 344.433C72.3609 334.021 62.7815 327.643 51.5107 324.775C51.597 323.031 51.7181 321.355 51.7181 319.956C51.7529 309.229 53.4504 298.744 53.9882 288.085C54.3002 281.953 55.0627 275.838 55.1838 269.688C55.6672 245.895 57.3483 221.811 57.6613 219.94C78.5063 226.01 92.7421 251.582 92.5019 269.291C89.7566 268.07 87.1806 267.157 84.8447 266.51C62.9775 260.493 51.4717 274.574 59.0991 286.6C69.1763 302.452 92.2135 292.589 94.0783 271.969C102.256 276.184 109.497 282.921 111.247 292.197C112.39 298.277 111.438 304.721 110.519 310.956Z" fill="#D7EF60"/>
<path d="M197.127 299.901C196.624 306.362 196.14 312.804 195.637 319.265C183.839 318.332 170.1 317.814 155.461 317.814C139.158 317.814 123.999 318.471 111.351 319.576C111.247 318.643 111.368 317.659 111.472 316.709C111.696 314.895 111.956 313.064 112.234 311.216C113.17 304.842 114.14 298.243 112.944 291.887C111.039 281.747 103.069 274.509 94.1981 270.105C94.8991 252.396 80.7085 224.692 57.9546 218.249C58.1793 217.092 58.5262 216.003 58.9244 214.915V214.898C58.907 214.881 58.9244 214.881 58.9419 214.863C61.7652 207.521 68.159 201.614 74.482 197.192C78.5184 194.359 83.11 191.509 87.9439 189.073C100.216 188.769 107.244 196.678 106.88 203.618C106.49 210.803 98.7651 217.289 104.143 226.368C109.813 235.913 124.56 239.564 140.595 224.831C144.299 221.404 148.049 217.644 152.878 219.044C155.737 219.873 157.954 222.413 158.682 225.694C160.158 232.391 156.796 238.165 154.073 244.8C150.66 253.42 151.301 259.984 156.03 264.285C161.176 269.009 170.5 269.233 177.912 262.298C178.103 263.318 178.571 264.406 179.402 265.597C178.397 264.907 176.543 265.494 175.417 265.926C174.29 266.34 173.407 267.359 173.113 268.517C170.869 267.38 168.233 268.76 167.828 271.177C164.208 270.141 165.299 274.925 165.889 276.481C167.347 280.244 169.502 290.462 179.506 302.685C180.736 304.188 184.183 301.58 184.357 299.645C186.419 300.837 189.45 299.68 190.161 297.417C191.546 296.45 193.522 296.45 194.907 297.417C195.826 298.056 196.328 299.196 197.125 299.904L197.127 299.901Z" fill="#D7EF60"/>
<path d="M201.337 179.174C198.745 196.477 190.141 206.46 180.755 210.475C176.164 204.135 169.771 199.108 162.287 196.051C156.125 193.516 150.886 200.893 155.08 205.931C160.502 212.395 170.293 216.172 180.114 212.581C186.517 222.085 188.184 233.738 185.745 244.193C183.207 245.254 182.169 248.167 182.955 250.498C183.059 250.809 183.181 251.12 183.302 251.431C182.705 252.821 181.893 254.36 181.067 255.629V255.646C179.611 256.803 178.503 258.151 178.035 259.688C171.062 267.392 161.983 267.375 157.193 263.004C153.069 259.239 152.55 253.331 155.685 245.437C158.3 238.918 161.994 232.729 160.381 225.313C159.515 221.426 156.829 218.386 153.364 217.384C147.745 215.75 143.646 219.654 139.434 223.551C134.15 228.405 125.955 233.95 116.963 232.844C112.268 232.274 108.041 229.51 105.633 225.486C100.758 217.228 108.218 211.503 108.596 203.704C108.987 196.338 102.008 188.313 91.3062 187.467C102.237 182.475 105.832 183.301 110.069 181.352C110.658 184.461 113.083 186.983 115.907 188.451C118.732 189.919 121.919 190.472 125.072 190.921C130.72 191.699 136.646 192.131 141.964 190.058C147.266 187.984 151.718 182.733 151.111 177.085C151.164 177.706 161.263 176.999 162.217 177.015C175.228 177.361 188.291 178.207 201.337 179.174Z" fill="#D7EF60"/>
<path d="M257.02 186.585C249.257 200.873 233.942 209.854 229.023 219.371C226.857 223.533 226.407 228.094 227.741 231.774C225.558 232.879 223.375 233.967 221.192 235.055C218.413 231.232 212.694 226.09 208.146 227.196C206.084 227.697 204.369 229.959 205.132 231.946C203.555 230.753 201.269 230.615 199.553 231.582C197.82 232.549 196.746 235.262 196.954 237.213C192.685 235.122 187.498 239.169 189.73 244.122C189.054 243.846 188.327 243.743 187.616 243.759C190.046 232.342 187.581 220.63 181.76 211.923C191.48 207.604 200.395 197.286 203.052 179.293C237.583 181.915 248.558 181.702 257.02 186.583V186.585Z" fill="#D7EF60"/>
<path d="M248.895 225.537C242.52 223.767 238.425 226.429 234.151 228.56C237.983 221.223 246.362 221.113 248.895 225.537Z" fill="#D7EF60"/>
<path d="M263.412 221.46C261.836 225.589 260.242 229.734 258.666 233.863C258.533 233.681 256.738 228.883 251.146 226.349C248.624 218.492 236.001 218.426 231.69 229.804C230.893 230.201 230.096 230.599 229.298 230.996C224.335 216.226 247.949 206.805 258.509 187.483C261.783 189.591 264.538 192.441 266.114 195.982C269.684 204.015 266.548 213.256 263.411 221.461L263.412 221.46Z" fill="#D7EF60"/>
<path d="M57.9547 218.247C57.6602 218.161 57.3831 218.074 57.106 218.023C57.6602 216.969 58.2667 215.933 58.9256 214.913C58.9081 214.913 58.9256 214.896 58.9256 214.896C58.9081 214.879 58.9256 214.879 58.943 214.861C65.7689 203.789 75.5053 194.461 87.6854 190.142L89.0883 247.786C82.2624 232.774 70.8275 221.892 57.9547 218.247Z" fill="#D7EF60"/>
<path d="M89.6253 269.948C89.6294 270.124 89.9209 281.649 89.9024 280.934C83.4604 293.384 68.0835 297.559 60.571 285.684C52.919 273.687 66.7636 260.785 89.6253 269.947V269.948Z" fill="#D7EF60"/>
<path d="M77.8444 355.522C75.1073 357.751 72.8895 360.445 72.1619 365.455C71.8242 367.943 72.0131 369.564 72.0408 370.447C66.2422 376.637 57.6993 377.651 51.8053 374.368C40.862 368.267 43.4985 352.703 57.7476 350.081C64.2676 348.868 71.7421 350.988 77.7931 353.761C77.828 354.348 77.8414 355.24 77.8455 355.523L77.8444 355.522Z" fill="#D7EF60"/>
<path d="M85.7621 392.488C85.1905 394.181 84.8436 395.182 84.8436 395.182C69.1813 390.26 52.6878 385.907 38.9324 376.63C30.3567 370.861 23.1839 362.258 21.469 352.084C19.9962 343.24 22.6985 334.309 25.4017 325.759C44.1429 322.598 66.1045 326.915 74.8475 343.775C76.1991 346.331 77.1341 349.026 77.5672 351.773C71.1816 349.349 64.8996 347.01 57.4179 348.37C41.3031 351.358 38.8965 369.168 50.9554 375.87C57.2681 379.38 66.2081 378.446 72.3351 372.571C73.8776 380.798 79.2072 387.204 85.7621 392.487V392.488Z" fill="#D7EF60"/>
<path d="M76.9431 322.875C74.3866 330.596 72.6942 331.926 81.9329 335.64C86.9494 341.165 87.3404 341.451 87.7889 342.395C89.7471 346.543 84.5027 350.573 80.842 353.26C80.374 353.018 79.906 352.793 79.4216 352.586C77.4408 335.049 57.3881 318.896 25.9907 323.929C31.3788 307.035 37.477 290.193 42.0337 273.092C46.8491 255.014 46.9681 236.968 56.2571 219.577C71.2687 222.903 83.8654 237.775 89.2093 252.605L89.5901 268.083C87.9962 267.478 86.4024 266.943 84.8435 266.511C62.9763 260.494 51.4705 274.575 59.0979 286.601C66.8074 298.729 82.2654 295.928 89.9708 284.131L90.057 287.534C89.8487 286.843 89.6239 286.135 89.3982 285.426C85.2407 297.915 81.0996 310.386 76.942 322.875H76.9431Z" fill="#D7EF60"/>
<path d="M106.976 108.897C105.936 107.823 102.794 109.164 99.9608 111.893C97.1251 114.622 95.6719 117.705 96.7125 118.781C97.7522 119.855 100.895 118.514 103.728 115.785C106.563 113.054 108.017 109.972 106.976 108.897Z" fill="#212121"/>
<path d="M138.857 105.73C135.093 104.57 131.682 104.786 131.24 106.212C130.798 107.64 133.49 109.737 137.256 110.897C141.021 112.058 144.43 111.842 144.874 110.416C145.315 108.987 142.623 106.89 138.858 105.73H138.857Z" fill="#212121"/>
<path d="M106.847 118.557C105.784 118.72 105.161 120.405 105.455 122.321C105.75 124.238 106.85 125.66 107.912 125.498C108.973 125.335 109.595 123.65 109.301 121.734C109.008 119.817 107.907 118.395 106.846 118.557H106.847Z" fill="#212121"/>
<path d="M135.799 115.74C134.737 115.904 134.114 117.588 134.408 119.505C134.703 121.422 135.802 122.844 136.864 122.682C137.927 122.519 138.549 120.834 138.254 118.918C137.961 117.001 136.859 115.579 135.799 115.74Z" fill="#212121"/>
<path d="M122.951 121.632C122.427 120.613 120.886 121.407 121.41 122.421L126.848 132.976C127.216 133.691 127.635 134.503 127.597 135.257C127.572 135.762 127.152 136.388 126.747 136.342C125.583 136.303 125.483 138.07 126.77 138.07C128.182 138.07 129.259 136.733 129.328 135.343C129.388 134.125 128.834 133.051 128.388 132.187L122.95 121.632H122.951Z" fill="#212121"/>
<path d="M127.013 147.27C123.287 148.884 118.354 147.325 116.246 143.862C115.998 143.454 115.464 143.324 115.057 143.572C114.647 143.82 114.518 144.351 114.766 144.758C117.353 149.006 123.161 150.824 127.705 148.853C128.759 148.397 128.058 146.809 127.014 147.27H127.013Z" fill="#212121"/>
<path d="M71.9473 101.969C73.377 103.917 70.6255 107.754 74.8097 113.798C76.034 115.572 77.632 117.6 79.4885 118.699C79.6928 119.61 79.8662 120.515 80.288 121.393C80.4266 121.687 82.5397 124.657 82.6444 124.485C81.3451 126.506 81.8131 128.856 83.0949 130.686C85.4092 133.949 87.5008 136.762 90.1209 138.655C94.5165 148.557 100.594 159.47 109.351 165.932C109.187 168.948 108.673 178.811 108.494 180.153C108.065 183.383 111.367 188.728 117.916 190.902C122.172 192.316 126.766 192.233 131.173 192.134C135.622 192.031 140.665 191.915 145.03 189.734C148.842 187.829 152.443 183.686 151.337 179.09L146.612 159.459C152.361 150.122 155.26 136.14 155.692 124.968C159.314 122.309 159.925 117.443 157.522 114.034C158.544 113.964 159.359 113.032 159.601 112.047C160.025 110.417 159.091 107.737 158.48 106.049C158.654 105.879 158.628 105.935 158.88 105.431C160.933 101.604 159.573 97.0313 158.18 93.058C155.721 86.0507 156.233 84.6663 157.681 80.7134C162.584 81.1698 165.59 77.219 168.115 73.1004C176.895 59.0429 177.814 57.6493 178.73 55.0512C180.369 50.3933 179.976 44.7439 177.62 39.1406C175.527 34.2095 172.274 29.8965 169.126 25.7247C155.777 8.11855 153.512 9.32906 124.735 2.07213C120.005 0.875945 115.908 -0.370381 111.824 0.0982706C107.328 0.599666 105.765 3.56608 102.677 5.43148C98.6176 7.83511 94.9578 6.57753 75.4614 5.0365C69.5458 4.49111 67.8206 5.08255 63.1448 8.61278C47.0197 20.8233 44.729 22.2436 42.347 25.8045C39.8654 29.5599 39.0475 34.4316 39.0423 38.9493C39.0403 41.3068 39.0393 42.3823 36.7393 43.7248C33.9211 45.3804 25.3454 50.421 26.0608 57.7506C26.3933 61.1212 27.3375 62.6243 35.3148 80.1834C40.9738 92.7316 46.0191 96.9934 63.8365 94.7116C65.9682 100.303 70.8318 100.459 71.9432 101.965L71.9473 101.969ZM149.653 179.493C150.5 183.009 147.578 186.529 144.255 188.19C140.237 190.197 135.401 190.308 131.134 190.408C126.895 190.506 122.506 190.606 118.464 189.263C112.738 187.359 109.895 182.769 110.212 180.381C110.405 178.934 110.928 168.837 111.022 167.08C122.387 174.425 136.93 173.124 145.307 161.437L149.653 179.493ZM137.613 166.598C131.222 170.72 122.222 170.957 114.682 167.208C102.652 161.22 94.221 145.177 89.5719 132.731C87.0174 118.102 94.4755 113.111 90.9317 106.86C109.182 96.9361 132.155 91.9212 150.695 101.69C153.938 106.909 154.269 119.41 153.78 126.007C153.828 125.989 153.872 125.965 153.919 125.946C153.249 139.155 148.82 159.397 137.613 166.6V166.598ZM36.8964 79.4743C29.0555 62.216 28.0918 60.6515 27.788 57.5858C27.3785 53.3915 30.5959 49.3455 37.6199 45.2177C40.7737 43.3759 40.7757 41.4255 40.7778 38.9544C40.7829 34.846 41.4993 30.2332 43.7941 26.7623C45.9442 23.5452 47.9157 22.3183 64.1957 9.99213C70.295 5.38543 68.8582 6.17641 93.6001 8.3672C106.649 9.56953 105.299 2.56534 112.023 1.81734C115.737 1.3886 119.672 2.5766 124.313 3.75027C152.129 10.7626 154.505 9.30757 167.746 26.7674C170.829 30.8543 174.017 35.0803 176.025 39.8139C178.214 45.0192 178.595 50.2276 177.097 54.4813C176.28 56.7969 175.816 57.506 166.642 72.1959C164.626 75.4866 162.214 79.0691 158.255 79.0404C159.634 74.4174 157.79 70.5269 154.64 66.7409C153.348 65.1825 151.916 63.7346 150.388 62.3869C150.778 62.084 150.131 63.1042 158.03 45.7201C158.226 45.2842 158.032 44.7736 157.596 44.5782C157.156 44.3827 156.646 44.5782 156.45 45.011L149.108 61.3013C146.198 58.9447 142.946 56.9678 139.442 55.4759C130.352 51.5373 130.993 53.108 120.989 53.9799C116.109 44.9936 113.537 34.8491 113.57 24.593C113.59 18.8146 114.924 14.7145 117.542 12.3784L122.6 34.8665C122.849 35.9787 124.542 35.6052 124.29 34.4889L118.937 10.6859C118.806 10.1016 118.126 9.8192 117.619 10.1507C113.807 12.6239 111.862 17.4824 111.837 24.5879C111.803 34.8849 114.337 45.0663 119.127 54.1436C109.098 55.086 99.1246 56.6485 89.7905 60.4294C83.8133 52.1748 78.6316 43.3073 74.4063 34.0438C73.9281 33.0031 72.3558 33.7204 72.8289 34.759C77.0501 44.0133 82.2226 52.8717 88.174 61.1324C80.0704 64.678 73.3862 69.5978 68.6909 75.5849C65.1235 80.1425 62.1349 87.2592 63.3521 93.0365C46.4183 95.1761 42.1541 91.1251 36.8974 79.4722L36.8964 79.4743ZM70.1072 98.8988C61.6146 94.8927 64.6145 83.6011 70.0548 76.6491C82.358 60.9574 103.031 57.1867 122.758 55.5587C130.596 54.8721 130.145 53.3311 138.8 57.0813C144.447 59.487 149.461 63.2076 153.305 67.8419C159.952 75.8366 155.74 78.978 154.902 83.8804C153.667 90.903 160.215 97.9543 157.601 104.102C139.183 89.5359 114.205 93.676 92.9289 103.926C86.9856 106.719 81.0988 110.524 80.1772 117.097C78.6675 116.118 77.2543 114.293 76.2362 112.818C73.5576 108.951 74.12 105.237 74.0974 105.045C74.317 101.056 73.3339 100.31 70.1072 98.8998V98.8988Z" fill="#212121"/>
<path d="M80.2593 88.4042C96.1494 73.3562 119.677 73.3542 140.332 74.2373C141.44 74.3201 141.58 72.5612 140.406 72.512C118.723 71.584 95.3622 71.72 79.0657 87.1518C78.2344 87.9397 79.429 89.1901 80.2593 88.4042Z" fill="#212121"/>
<path d="M128.487 84.5568C122.473 84.4125 116.386 85.5473 110.84 87.822C109.775 88.26 110.437 89.847 111.498 89.4203C116.826 87.2357 122.678 86.1469 128.447 86.284C129.528 86.3915 129.688 84.5844 128.487 84.5568Z" fill="#212121"/>
<path d="M36.6879 62.4852C35.8361 61.7177 34.6754 62.9999 35.5241 63.7663L49.376 76.2766C49.5422 76.426 49.7495 76.4997 49.9579 76.4997C50.1939 76.4997 50.4289 76.4045 50.6003 76.2162C50.9216 75.8622 50.8949 75.3158 50.5398 74.9955L36.6879 62.4852Z" fill="#212121"/>
<path d="M176.123 278.037C175.901 276.917 174.2 277.253 174.425 278.375C175.571 284.108 177.968 289.659 181.358 294.429C182.019 295.363 183.435 294.361 182.772 293.431C179.522 288.857 177.222 283.533 176.123 278.037Z" fill="#212121"/>
<path d="M183.18 279.115C182.872 278.017 181.202 278.479 181.511 279.579C182.696 283.805 184.787 287.843 187.555 291.255C188.255 292.118 189.632 291.07 188.901 290.169C186.28 286.938 184.302 283.115 183.179 279.115H183.18Z" fill="#212121"/>
<path d="M140.111 419.228C135.832 419.228 132.366 422.7 132.366 426.967C132.366 431.234 135.831 434.688 140.111 434.688C144.39 434.688 147.872 431.234 147.872 426.967C147.872 422.7 144.39 419.228 140.111 419.228ZM144.459 427.329H135.797C134.66 427.329 134.648 425.602 135.797 425.602H144.459C145.612 425.602 145.6 427.329 144.459 427.329Z" fill="#212121"/>
<path d="M181.326 419.556C177.22 419.556 173.894 422.873 173.894 426.967C173.894 431.061 177.22 434.36 181.326 434.36C185.433 434.36 188.759 431.061 188.759 426.967C188.759 422.873 185.433 419.556 181.326 419.556ZM182.193 431.423C182.193 432.572 180.46 432.561 180.46 431.423V422.493C180.46 421.359 182.193 421.347 182.193 422.493V431.423Z" fill="#212121"/>
<path d="M183.109 253.18C178.493 255.971 175.4 259.555 177.722 264.437C176.979 264.506 176.114 264.731 175.119 265.112C174.031 265.512 173.125 266.354 172.606 267.403C170.257 266.792 168 268.074 167.205 270.177C164.033 269.886 163.916 273.727 165.082 276.787C166.588 280.672 168.75 290.905 178.837 303.227C180.427 305.17 183.854 303.059 184.912 300.801C187.208 301.448 189.963 300.257 190.878 297.98C191.952 297.363 193.396 297.41 194.413 298.119C195.359 298.777 196.046 300.592 197.546 301.211C201.026 302.709 204.025 301.252 206.672 299.966C206.844 299.883 260.94 273.687 261.349 273.487C269.326 269.62 272.642 260.027 268.677 252.081C268.235 251.191 271.053 256.874 259.199 232.975C255.259 225.064 245.614 221.848 237.695 225.816L221.427 233.967C219.539 231.518 217.134 229.21 214.426 227.703C214.827 227.321 214.361 228.603 218.925 204.297C219.133 203.175 217.43 202.863 217.221 203.984C216.332 208.811 213.023 226.653 212.983 226.989C207.856 224.805 204.502 227.519 204.115 230.433C200.434 229.141 196.639 231.295 196.106 235.996C191.788 234.963 187.593 238.347 188.451 242.928C184.004 242.458 180.774 246.736 182.134 250.768C182.468 251.769 183.028 252.991 183.109 253.178V253.18ZM238.473 227.362C245.553 223.819 254.144 226.71 257.643 233.737L267.125 252.851C270.655 259.926 267.72 268.479 260.587 271.936C259.677 272.384 260.588 271.935 253.867 275.188L241.122 258.135C240.854 257.776 240.354 257.679 239.97 257.918C232.691 262.433 224.88 266.099 216.756 268.811C216.259 268.978 216.022 269.545 216.256 270.015L225.2 287.978C225.704 288.995 227.262 288.235 226.75 287.211L218.247 270.13C225.91 267.495 233.29 264.024 240.207 259.801L252.283 275.957C220.605 291.302 219.105 292.029 212.274 295.339C204.672 299.003 201.704 301.118 198.22 299.621C197.273 299.231 196.676 297.59 195.405 296.705C192.924 294.971 189.643 296.174 189.335 297.155C188.793 298.883 186.378 299.811 184.791 298.894C184.245 298.576 183.55 298.937 183.494 299.564C183.368 300.986 180.701 302.774 180.178 302.136C170.265 290.024 168.142 279.895 166.699 276.172C166.139 274.694 165.901 272.62 166.422 272.056C166.655 271.803 167.184 271.888 167.591 272.004C168.089 272.146 168.6 271.824 168.684 271.316C168.992 269.479 170.997 268.41 172.721 269.284C173.214 269.534 173.816 269.266 173.953 268.726C174.183 267.826 174.875 267.043 175.728 266.729C177.93 265.884 178.687 266.151 178.91 266.306C179.705 266.849 180.661 265.885 180.112 265.101C177.032 260.697 179.185 257.618 183.836 254.759C186.557 260.199 190.775 264.915 196.213 268.508C201.247 271.837 205.074 270.768 206.998 264.13C209.434 266.477 213.594 265.07 214.214 260.894C214.324 260.212 214.624 259.212 214.792 258.398C218.216 260.679 222.753 257.458 221.116 251.603C223.426 251.963 225.22 250.136 225.726 247.815C226.533 244.115 225.329 239.632 222.456 235.388L238.47 227.363L238.473 227.362ZM206.118 229.796C209.866 222.685 226.326 236.94 224.037 247.446C223.528 249.769 221.74 250.371 220.697 249.621C216.929 242.852 211.855 236.675 205.941 231.654C205.934 231.482 205.563 230.855 206.118 229.796ZM199.98 232.334C202.139 231.115 204.351 232.461 204.178 232.414C210.001 237.221 215.011 243.193 218.776 249.747C218.783 250.419 219.896 252.535 219.756 254.282C219.648 255.664 218.94 256.829 217.96 257.252C216.845 257.725 215.289 257.048 214.874 255.867C213.585 253.73 210.879 243.578 197.805 236.705C197.807 235.137 198.654 233.075 199.98 232.334ZM191.303 238.819C193.648 236.554 196.796 238.016 196.563 237.988C204.466 242.017 209.907 248.03 213.206 256.356C213.413 257.533 212.728 259.218 212.503 260.631C211.936 264.445 207.894 264.192 207.513 261.566C207.467 261.252 207.255 261 206.974 260.889C204.372 254.274 199.098 248.728 190.44 243.558C189.738 241.811 190.051 240.013 191.302 238.819H191.303ZM189.332 244.903C198.115 250.105 203.308 255.633 205.669 262.271C204.256 269.307 201.245 269.762 197.174 267.069C190.43 262.611 185.87 256.465 183.778 250.222C182.649 246.874 185.939 243.584 189.333 244.903H189.332Z" fill="#212121"/>
<path d="M161.225 287.085C161.104 286.623 160.627 286.35 160.167 286.47L153.398 288.245C152.935 288.366 152.659 288.839 152.781 289.3C152.884 289.688 153.234 289.944 153.618 289.944C153.691 289.944 153.766 289.934 153.839 289.915L160.608 288.14C161.071 288.019 161.347 287.546 161.225 287.085Z" fill="#212121"/>
<path d="M163.983 297.869C163.539 298.046 163.323 298.548 163.501 298.991L166.351 306.095C166.486 306.432 166.811 306.637 167.154 306.637C167.262 306.637 167.371 306.618 167.477 306.576C167.921 306.399 168.136 305.896 167.959 305.453L165.109 298.35C164.932 297.906 164.426 297.69 163.983 297.869Z" fill="#212121"/>
<path d="M153.255 308.896L148.625 311.027C148.191 311.226 148.001 311.74 148.201 312.173C148.347 312.489 148.661 312.674 148.988 312.674C149.109 312.674 149.233 312.65 149.35 312.594L153.981 310.464C154.415 310.265 154.605 309.751 154.405 309.318C154.206 308.886 153.692 308.695 153.255 308.895V308.896Z" fill="#212121"/>
<path d="M98.0716 258.304C92.3387 280.668 84.5337 302.646 74.8733 323.629C74.396 324.667 75.9693 325.389 76.4476 324.35C86.1512 303.274 93.991 281.197 99.7496 258.731C100.034 257.62 98.3528 257.202 98.0705 258.304H98.0716Z" fill="#212121"/>
<path d="M419.584 380.729C421.155 376.944 417.785 376.519 417.557 378.03C417.535 375.985 417.511 373.94 417.489 371.895C416.466 372.773 415.444 373.651 414.422 374.529C415.098 368.294 412.199 361.796 407.102 358.121C408.467 366.801 405.074 376.792 398.992 383.166C394.616 379.389 389.155 376.853 383.401 376.108C382.784 376.028 382.404 375.945 381.849 375.799C382.104 373.851 381.71 371.695 380.058 370.64C382.164 369.973 384.269 369.303 386.376 368.624C386.989 368.426 387.178 367.649 386.724 367.193C382.013 362.467 377.714 354.468 378.196 346.779C378.338 346.875 378.379 346.926 378.441 347.08C379.186 348.925 380.459 348.476 380.585 347.632C382.163 337.038 384.969 337.915 387.504 335.231C389.388 333.237 389.7 330.51 389.317 328.195C400.375 326.286 408.096 318.468 410.504 306.71C414.269 288.326 400.154 270.765 381.609 268.259C373.413 267.151 364.463 268.824 357.667 264.619C354.044 262.379 350.993 258.393 346.413 257.671C342.162 257.006 338.552 259.341 335.056 261.601C328.639 265.749 326.479 266.558 316.898 264.966C305.254 263.028 293.104 267.53 294.581 279.435C296.146 292.058 302.735 304.986 307.138 317.369C305.431 318.806 305.124 320.785 305.82 322.134C306.518 323.489 308.297 324.324 308.222 325.176C308.143 326.084 305.965 326.43 304.785 327.544C302.482 329.723 303.835 334.66 308.69 335.47C304.939 341.432 302.752 348.797 302.372 356.94C297.479 358.027 294.345 363.954 297.209 370.924C298.302 373.604 300.013 375.94 301.526 378.005C306.06 384.114 312.761 387.376 320.402 389.139C320.277 389.275 320.186 389.443 320.169 389.644C319.714 395.033 321.012 400.643 323.74 405.585C323.665 405.758 321.536 411.644 321.514 412.106C321.028 413.461 320.784 413.278 319.784 413.048C317.083 412.534 314.185 414.557 313.465 417.479C311.846 424.032 319.967 431.204 328.218 429.003C333.372 427.633 336.014 423.397 338.003 419.286C339.278 420.244 340.587 421.195 342.034 421.968C341.941 422.467 341.859 422.949 341.748 423.415C339.473 422.439 336.717 423.241 335.407 425.361C333.843 427.897 334.624 431.035 336.091 433.021C338.153 435.81 341.743 437.294 345.061 438.271H241.021V413.049C241.021 412.572 240.634 412.185 240.155 412.185H239.795L220.976 397.645C225.429 396.118 229.383 394.281 232.976 391.72C240.04 386.683 244.17 379.699 244.028 373.031C243.844 365.592 240.328 358.463 234.619 353.96C232.188 352.052 229.386 350.509 228.277 347.905C225.544 341.594 233.916 335.113 235.539 330.089C242.104 322.449 205.749 319.174 195.707 318.4C183.678 317.449 169.76 316.946 155.461 316.946C116.289 316.946 74.6577 320.984 74.6577 328.468C74.6577 329.78 75.7107 330.928 77.9028 332.016C77.8105 332.821 77.908 332.297 85.7806 341.141C86.2702 341.677 86.733 342.184 87.006 342.758C88.7425 346.439 83.2283 350.45 79.9913 352.806C76.037 355.684 72.3034 358.403 71.3058 365.33C68.9987 381.689 85.4799 396.55 100.431 401.631L72.7016 412.233C71.9267 412.531 71.9647 413.654 72.8021 413.866V439.132C72.8021 439.609 73.1891 439.996 73.6683 439.996H376.415C377.562 439.996 377.561 438.269 376.415 438.269H357.466C360.662 436.077 360.91 431.015 362.966 423.174C365.434 424.973 369.713 424.715 373.762 424.462C376.065 433.899 387.395 437.281 394.533 431.225C394.578 431.187 394.602 431.137 394.637 431.092C404.883 438.282 417.239 433.651 416.429 424.908C416.252 423.002 415.396 421.378 414.016 420.335C411.338 418.31 408.019 419.485 406.41 417.697C409.979 409.994 409.926 400.78 406.41 393.062C412.283 391.052 417.215 386.449 419.587 380.726L419.584 380.729ZM76.389 328.471C76.389 321.342 143.109 315.976 195.57 320.126C226.376 322.498 234.515 326.622 234.515 328.471C234.515 328.99 233.95 329.512 233.519 329.821C230.69 324.655 223.094 324.238 219.913 329.696C217.168 327.244 213.236 324.579 208.478 325.278C204.844 325.82 202.125 327.301 200.519 329.594C196.238 323.621 186.782 323.972 181.077 329.954C179.757 326.784 176.772 324.326 173.359 323.747C169.964 323.178 166.107 324.617 163.713 327.194C160.877 320.255 151.633 318.554 145.761 324.087C143.52 326.199 142.007 328.783 141.405 331.449C137.752 326.71 131.187 325.818 126.694 328.832C124.714 324.198 112.733 322.876 105.323 330.436C98.8258 324.022 88.2099 324.801 82.71 331.995C81.2711 331.565 76.3901 329.979 76.3901 328.47L76.389 328.471ZM232.01 330.664C224.106 334.301 197.583 338.266 155.46 338.266C125.311 338.266 97.9514 335.997 84.5357 332.505C89.9145 326.211 99.4088 326.343 104.681 332.275C105.026 332.665 105.638 332.663 105.981 332.271C112.761 324.535 125.221 325.989 125.289 330.357C125.3 331.102 126.187 331.479 126.734 330.987C131.175 327.017 138.715 328.674 141.181 334.462C141.547 335.326 142.854 335.06 142.845 334.117C142.781 327.79 149.163 321.159 156.032 322.747C159.239 323.488 161.907 326.149 162.524 329.218C162.677 329.979 163.691 330.172 164.106 329.508C165.882 326.685 169.82 324.9 173.069 325.454C176.344 326.008 179.145 328.65 179.88 331.88C180.043 332.587 180.959 332.796 181.41 332.218C186.743 325.368 196.806 325.391 199.742 331.681C200.054 332.348 201.008 332.346 201.316 331.675C202.483 329.126 204.979 327.549 208.734 326.99C213.216 326.313 216.89 329.185 219.591 331.755C220.035 332.179 220.784 332.018 221.001 331.43C221.81 329.246 224.001 327.627 226.329 327.491C228.597 327.366 230.923 328.662 232.01 330.666V330.664ZM86.3061 391.816C77.9747 385.103 71.5326 376.114 73.0197 365.578C74.4001 355.994 81.5349 355.453 87.159 348.869C89.2156 346.373 89.4086 343.797 88.5722 342.024C88.0652 340.96 87.8373 340.832 80.9232 333.244C93.0571 337.296 122.655 339.993 155.462 339.993C188.268 339.993 221.581 337.255 232.564 332.114C230.271 335.807 223.948 342.271 226.684 348.587C228.002 351.688 231.071 353.379 233.545 355.319C238.853 359.507 242.124 366.145 242.295 373.074C242.426 379.167 238.565 385.614 231.968 390.318C226.313 394.347 219.664 396.549 211.419 398.612C181.395 406.117 149.302 407.915 118.605 403.811C105.041 402.009 95.7562 399.398 86.3082 391.817L86.3061 391.816ZM103.076 402.473C128.655 409.972 181.884 409.933 218.982 398.294L236.955 412.18H77.6883L103.076 402.473ZM74.5325 438.273V413.914H239.287V438.273H74.5325ZM296.3 279.225C294.962 268.429 306.518 264.993 316.612 266.672C326.587 268.329 329.178 267.463 335.998 263.053C339.369 260.873 342.547 258.812 346.143 259.38C350.094 260.002 353.088 263.821 356.753 266.09C364.026 270.589 373.242 268.874 381.377 269.973C398.866 272.337 412.384 288.899 408.807 306.366C406.54 317.432 399.284 324.774 388.9 326.52C385.558 316.691 366.999 313.295 359.047 311.844C342.419 308.806 325.096 310.181 310.268 315.709C309.719 315.914 309.163 316.14 308.626 316.405C304.169 303.984 297.812 291.404 296.3 279.225ZM305.993 332.019C305.345 331.079 305.153 329.581 305.977 328.802C307.024 327.811 309.753 327.56 309.948 325.33C310.124 323.334 307.934 322.464 307.36 321.348C306.43 319.542 308.975 318.034 310.873 317.328C325.412 311.908 342.411 310.563 358.735 313.544C366.418 314.947 384.412 318.232 387.31 327.183C388.15 329.779 387.731 332.473 386.243 334.049C384.269 336.141 380.792 336.422 379.197 345.365C379.151 345.334 379.103 345.302 379.052 345.27C362.895 335.235 342.456 329.999 321.704 331.94C316.967 332.383 308.783 336.062 305.993 332.02V332.019ZM302.921 376.985C301.471 375.005 299.827 372.76 298.813 370.274C296.242 364.019 299.217 358.96 303.298 358.541C303.728 358.497 304.061 358.142 304.075 357.711C304.361 349.229 306.643 341.604 310.653 335.605C314.558 335.558 318.948 333.932 321.867 333.659C341.404 331.827 360.732 336.45 376.566 345.821C375.815 352.926 378.863 361.193 384.533 367.403C382.079 368.19 379.624 368.967 377.169 369.743C376.37 369.997 376.364 371.124 377.156 371.386C378.446 371.813 379.173 371.862 379.697 372.671C380.737 374.298 380.441 377.643 377.28 380.262C369.751 386.439 349.894 389.752 339.272 389.429C324.879 389.009 310.513 387.209 302.923 376.983L302.921 376.985ZM327.769 427.337C320.567 429.257 313.894 422.964 315.145 417.896C315.587 416.1 317.45 414.359 319.453 414.747C319.917 414.853 320.519 415.031 321.145 414.893C322.553 414.583 323.257 412.693 323.242 412.232C323.236 412.06 324.843 407.741 324.917 407.56C328.89 413.606 332.82 415.394 336.586 418.24C334.68 422.24 332.359 426.118 327.768 427.338L327.769 427.337ZM375.512 424.33C380.109 423.919 384.023 423.062 387.631 421.67C388.604 424.904 390.617 427.796 393.256 430.025C387.144 435.026 377.669 432.268 375.511 424.33H375.512ZM404.621 417.428C404.488 417.701 404.509 418.025 404.675 418.279C406.805 421.514 410.525 419.871 412.968 421.715C415.397 423.553 415.184 427.682 413.116 429.952C407.336 436.288 391.764 431.991 389.061 420.312C388.939 419.787 388.371 419.501 387.883 419.709C382.666 421.879 376.842 422.863 368.999 422.898C365.979 422.853 364.165 422.316 363.223 421.024C362.803 420.449 361.895 420.598 361.691 421.288C361.148 423.129 360.714 425.064 360.294 426.935C358.331 435.696 357.787 438.236 351.545 437.739C347.048 437.384 340.12 435.564 337.485 431.998C336.156 430.201 335.908 427.845 336.881 426.27C337.883 424.645 340.209 424.233 341.731 425.395C342.193 425.746 342.854 425.553 343.062 425.028C343.999 422.676 343.627 419.201 346.863 414.655C347.528 413.724 346.113 412.724 345.451 413.655C344.053 415.617 343.031 417.859 342.408 420.191C339.73 418.664 337.475 416.571 334.896 414.911C319.81 405.204 321.951 389.741 321.852 389.444C327.785 390.653 335.708 391.189 341.292 391.189C351.347 391.189 377.582 387.417 381.396 377.468C381.969 377.619 382.435 377.726 383.178 377.823C401.94 380.247 412.888 400.447 404.62 417.428H404.621Z" fill="#212121"/>
<path d="M345.19 368.439C347.289 368.919 349.701 366.226 350.575 362.425C351.449 358.624 350.455 355.154 348.355 354.673C346.254 354.193 343.843 356.885 342.969 360.686C342.095 364.488 343.089 367.958 345.19 368.439Z" fill="#212121"/>
<path d="M316.486 347.653C314.355 347.34 312.164 350.213 311.594 354.072C311.023 357.93 312.289 361.312 314.42 361.625C316.552 361.938 318.743 359.065 319.313 355.206C319.883 351.348 318.618 347.966 316.486 347.653Z" fill="#212121"/>
<path d="M331.665 372.883C330.597 375.16 328.138 376.879 325.091 376.555C325.107 376.38 325.875 368.236 325.827 368.747C326.712 368.483 332.593 364.899 333.094 363.954C333.41 363.356 332.83 362.57 332.349 362.206C330.795 361.03 325.51 360.431 322.865 360.448C320.063 360.466 318.991 362.061 321.004 364.619C321.923 365.784 324.114 368.051 324.286 368.21C323.98 368.613 324.2 368.281 323.386 376.167C321.187 375.313 319.919 373.434 318.6 371.424C317.97 370.468 316.523 371.413 317.149 372.37C318.141 373.881 319.375 375.762 321.202 376.976C325.338 379.719 331.075 378.221 333.235 373.616C333.72 372.585 332.154 371.846 331.666 372.884L331.665 372.883Z" fill="#212121"/>
<path d="M315.89 344.701C319.344 344.068 321.947 342.494 321.706 341.185C321.464 339.876 318.469 339.328 315.016 339.961C311.563 340.595 308.958 342.169 309.201 343.477C309.442 344.787 312.437 345.336 315.89 344.702V344.701Z" fill="#212121"/>
<path d="M349.919 349.943C353.116 351.391 356.155 351.583 356.707 350.371C357.258 349.158 355.115 347.002 351.917 345.556C348.721 344.109 345.681 343.916 345.13 345.128C344.578 346.34 346.721 348.496 349.919 349.943Z" fill="#212121"/>
<path d="M326.086 322.866C346.605 316.639 361.989 324.455 362.935 324.455C363.881 324.455 364.139 323.141 363.256 322.789C351.288 318.032 337.908 317.472 325.582 321.214C324.482 321.548 324.997 323.208 326.087 322.866H326.086Z" fill="#212121"/>
<path d="M319.385 295.694C315.96 289.2 313.805 281.904 313.153 274.594C313.05 273.432 311.326 273.623 311.428 274.747C312.099 282.282 314.321 289.804 317.851 296.499C318.384 297.507 319.92 296.712 319.386 295.694H319.385Z" fill="#212121"/>
<path d="M340.549 308.311C341.116 298.948 344.792 289.864 350.9 282.731C351.642 281.863 350.331 280.742 349.582 281.609C343.231 289.027 339.41 298.473 338.82 308.208C338.751 309.347 340.48 309.453 340.55 308.311H340.549Z" fill="#212121"/>
<path d="M370.244 311.682C372.631 301.4 379.637 292.303 388.983 287.351C391.815 285.849 393.199 286.893 391.962 289.81C390.339 293.626 387.705 296.936 384.342 299.378C383.415 300.051 384.438 301.447 385.362 300.774C388.977 298.147 391.811 294.588 393.555 290.483C395.371 286.215 392.626 283.465 388.171 285.824C378.386 291.009 371.053 300.529 368.555 311.291C368.297 312.406 369.985 312.792 370.243 311.681L370.244 311.682Z" fill="#212121"/>
<path d="M224.386 135.025H233.256L237.343 146.856C237.573 147.522 238.46 147.646 238.868 147.076L247.475 135.025H300.018C300.497 135.025 300.885 134.639 300.885 134.161V75.4212C300.885 74.9443 300.498 74.5575 300.018 74.5575H224.386C223.907 74.5575 223.52 74.9433 223.52 75.4212V134.161C223.52 134.638 223.906 135.025 224.386 135.025ZM225.252 76.2858H299.152V133.299H247.029C246.749 133.299 246.486 133.434 246.323 133.662L238.434 144.708L234.694 133.882C234.573 133.533 234.244 133.3 233.875 133.3H225.253V76.2868L225.252 76.2858Z" fill="#212121"/>
<path d="M265.24 117.763C272.75 115.745 281.932 107.334 281.421 99.1464C281.139 94.64 277.478 90.2594 272.952 90.1683C268.387 90.0752 264.758 93.9728 262.521 97.942C256.774 78.8102 235.488 87.073 245.682 103.889C249.266 109.798 257.398 119.871 265.239 117.763H265.24Z" fill="#212121"/>
<path d="M33.3515 209.963C13.3337 211.005 -2.16026 192.37 2.59558 172.948C3.21649 170.411 4.15144 168.111 5.35528 166.117C14.3292 181.051 29.2895 179.305 30.0766 168.361C30.3168 165.009 29.0893 161.743 26.7904 159.624C21.659 154.895 11.8692 154.982 5.54104 162.834C-2.30599 146.72 4.96632 128.539 19.786 121.398C20.8184 120.901 20.0631 119.346 19.0317 119.843C3.01842 127.56 -4.51252 147.306 4.39467 164.4C2.84702 166.728 1.66268 169.477 0.912462 172.537C-4.08661 192.959 12.1247 212.783 33.4418 211.688C34.6077 211.627 34.4681 209.872 33.3515 209.963ZM28.3473 168.239C27.6597 177.837 14.3128 178.474 6.42468 164.518C14.3046 153.9 29.1088 157.629 28.3473 168.239Z" fill="#212121"/>
<rect x="287.179" y="254.5" width="133.427" height="184" fill="white"/>
</g>
<defs>
<clipPath id="clip0_674_2602">
<rect width="420" height="440" fill="white"/>
</clipPath>
</defs>
</svg>
